<svg width="50" height="45" viewBox="0 0 50 45" fill="none" xmlns="http://www.w3.org/2000/svg">
<path d="M25.984 43.744L24.4223 42.4946L24.4027 42.519L24.384 42.544L25.984 43.744ZM0.704 43.744L-1.01098 44.773L-0.884311 44.9841L-0.710214 45.1582L0.704 43.744ZM0.704 36.576L-0.496 34.976L-0.609707 35.0613L-0.710211 35.1618L0.704 36.576ZM8.448 36.384V38.384H10.448V36.384H8.448ZM8.448 9.504H10.448V7.13574L8.11317 7.53222L8.448 9.504ZM1.664 10.656L1.9928 12.6288L1.99883 12.6278L1.664 10.656ZM0.64 10.592L-0.774216 12.0062L-0.673705 12.1067L-0.559988 12.192L0.64 10.592ZM0.512 4L-1.27686 3.10558L-1.34042 3.23271L-1.38537 3.36755L0.512 4ZM1.536 3.36L1.01272 1.42967L0.980114 1.4385L0.947827 1.44844L1.536 3.36ZM12.16 0.48L12.6833 2.41033L12.7039 2.40475L12.7243 2.39873L12.16 0.48ZM14.272 0.159996V2.16H14.3344L14.3968 2.1561L14.272 0.159996ZM16.064 0.48L15.1696 2.26885L15.2312 2.29966L15.2948 2.32615L16.064 0.48ZM17.28 1.568L19.0076 0.560256L19.0076 0.560253L17.28 1.568ZM17.728 36.384H15.728V38.384H17.728V36.384ZM25.984 36.576L24.5698 37.9902L24.6703 38.0907L24.784 38.176L25.984 36.576ZM24.24 42.72C24.24 42.8418 24.2281 42.8735 24.2357 42.8429C24.2435 42.8118 24.2841 42.6674 24.4223 42.4946L27.5457 44.9934C28.1415 44.2487 28.24 43.3484 28.24 42.72H24.24ZM24.384 42.544C24.6774 42.1528 25.0285 42.0376 25.1146 42.013C25.2102 41.9856 25.2213 42 25.088 42V46C25.424 46 25.8192 45.9717 26.2134 45.859C26.5982 45.7491 27.1626 45.5058 27.584 44.944L24.384 42.544ZM25.088 42H1.664V46H25.088V42ZM1.664 42C1.53726 42 1.52553 41.9871 1.58733 42.0035C1.6462 42.0192 1.87897 42.0905 2.11822 42.3298L-0.710214 45.1582C0.0614204 45.9298 1.10512 46 1.664 46V42ZM2.41899 42.715C2.46944 42.7991 2.49658 42.8671 2.50997 42.9058C2.52345 42.9447 2.52676 42.9648 2.52574 42.9594C2.52482 42.9545 2.52112 42.9327 2.5178 42.8906C2.5145 42.8489 2.512 42.7926 2.512 42.72H-1.488C-1.488 43.2813 -1.42766 44.0785 -1.01098 44.773L2.41899 42.715ZM2.512 42.72V37.664H-1.488V42.72H2.512ZM2.512 37.664C2.512 37.549 2.51513 37.4597 2.51957 37.393C2.52176 37.3602 2.52411 37.3352 2.52615 37.3174C2.5282 37.2994 2.52963 37.2912 2.52957 37.2916C2.52956 37.2916 2.5273 37.3046 2.52115 37.328C2.51514 37.3508 2.50334 37.3915 2.48249 37.4448C2.46194 37.4973 2.42791 37.5741 2.37399 37.664C2.32022 37.7536 2.23836 37.8701 2.11821 37.9902L-0.710211 35.1618C-1.23971 35.6913 -1.36699 36.3552 -1.40957 36.5964C-1.47033 36.9408 -1.488 37.311 -1.488 37.664H2.512ZM1.904 38.176C1.773 38.2743 1.65794 38.3274 1.5888 38.3545C1.5189 38.3818 1.47314 38.3914 1.46423 38.3932C1.45253 38.3955 1.50907 38.384 1.664 38.384V34.384C1.34959 34.384 1.01147 34.4045 0.679769 34.4708C0.367444 34.5333 -0.0788298 34.6631 -0.496 34.976L1.904 38.176ZM1.664 38.384H8.448V34.384H1.664V38.384ZM10.448 36.384V9.504H6.448V36.384H10.448ZM8.11317 7.53222L1.32917 8.68423L1.99883 12.6278L8.78283 11.4758L8.11317 7.53222ZM1.33521 8.68321C1.16042 8.71234 1.11138 8.70556 1.14876 8.70789C1.17176 8.70933 1.24893 8.7156 1.35999 8.748C1.47135 8.78048 1.64893 8.8487 1.83999 8.99199L-0.559988 12.192C-0.0264673 12.5921 0.553402 12.6785 0.899245 12.7001C1.27795 12.7238 1.65558 12.685 1.99279 12.6288L1.33521 8.68321ZM2.05422 9.17779C2.29346 9.41703 2.36477 9.6498 2.38047 9.70867C2.39695 9.77047 2.384 9.75874 2.384 9.632H-1.616C-1.616 10.1909 -1.54585 11.2346 -0.774216 12.0062L2.05422 9.17779ZM2.384 9.632V4.96H-1.616V9.632H2.384ZM2.384 4.96C2.384 4.84038 2.39075 4.75414 2.39846 4.69633C2.40624 4.63792 2.41348 4.62011 2.40937 4.63245L-1.38537 3.36755C-1.56076 3.89373 -1.616 4.44422 -1.616 4.96H2.384ZM2.30086 4.89442C2.14645 5.20325 1.94452 5.33117 1.924 5.34399C1.89835 5.36003 1.9465 5.32622 2.12417 5.27155L0.947827 1.44844C0.336471 1.63655 -0.749465 2.05079 -1.27686 3.10558L2.30086 4.89442ZM2.05928 5.29033L12.6833 2.41033L11.6367 -1.45033L1.01272 1.42967L2.05928 5.29033ZM12.7243 2.39873C13.2859 2.23357 13.7997 2.16 14.272 2.16V-1.84C13.379 -1.84 12.4848 -1.70024 11.5957 -1.43873L12.7243 2.39873ZM14.3968 2.1561C14.7962 2.13114 15.0295 2.19882 15.1696 2.26885L16.9584 -1.30885C16.0745 -1.75082 15.1132 -1.89648 14.1472 -1.83611L14.3968 2.1561ZM15.2948 2.32615C15.3761 2.36003 15.4573 2.41263 15.5524 2.57574L19.0076 0.560253C18.5054 -0.300632 17.7759 -0.973362 16.8332 -1.36615L15.2948 2.32615ZM15.5524 2.57574C15.6188 2.68955 15.728 2.97059 15.728 3.552H19.728C19.728 2.51208 19.5385 1.47044 19.0076 0.560256L15.5524 2.57574ZM15.728 3.552V36.384H19.728V3.552H15.728ZM17.728 38.384H25.088V34.384H17.728V38.384ZM25.088 38.384C25.2482 38.384 25.2859 38.3964 25.2449 38.3876C25.2208 38.3824 25.143 38.3643 25.0353 38.3158C24.9291 38.268 24.7511 38.1715 24.5698 37.9902L27.3982 35.1618C26.9324 34.696 26.3784 34.5397 26.0831 34.4764C25.7435 34.4036 25.3971 34.384 25.088 34.384V38.384ZM24.784 38.176C24.5275 37.9837 24.3895 37.769 24.3228 37.6411C24.2564 37.5137 24.2338 37.4217 24.2292 37.4021C24.2219 37.3712 24.24 37.439 24.24 37.664H28.24C28.24 37.2916 28.2154 36.8795 28.1228 36.4859C28.0452 36.1559 27.837 35.4657 27.184 34.976L24.784 38.176ZM24.24 37.664V42.72H28.24V37.664H24.24ZM47.6365 43.104L46.2492 41.6634L46.2356 41.6764L46.2223 41.6898L47.6365 43.104ZM41.1725 44.32L40.411 46.1694L41.1725 44.32ZM39.2525 43.104L37.8383 44.5182L37.8666 44.5465L37.8959 44.5736L39.2525 43.104ZM37.9725 41.312L36.1231 42.0735L36.151 42.1411L36.1836 42.2064L37.9725 41.312ZM37.9725 36.768L36.1629 35.9164L36.1512 35.9412L36.1402 35.9664L37.9725 36.768ZM39.2525 34.912L37.8959 33.4424L37.8666 33.4695L37.8383 33.4978L39.2525 34.912ZM47.6365 34.912L46.2223 36.3262L46.2356 36.3396L46.2492 36.3526L47.6365 34.912ZM47.3645 39.008C47.3645 40.0943 47.0037 40.9369 46.2492 41.6634L49.0238 44.5446C50.5733 43.0525 51.3645 41.1644 51.3645 39.008H47.3645ZM46.2223 41.6898C45.5125 42.3995 44.6458 42.768 43.4765 42.768V46.768C45.6352 46.768 47.5418 46.0271 49.0507 44.5182L46.2223 41.6898ZM43.4765 42.768C42.9181 42.768 42.4097 42.6665 41.934 42.4706L40.411 46.1694C41.386 46.5708 42.4135 46.768 43.4765 46.768V42.768ZM41.934 42.4706C41.4193 42.2587 40.9827 41.9793 40.6091 41.6344L37.8959 44.5736C38.6317 45.2527 39.4751 45.784 40.411 46.1694L41.934 42.4706ZM40.6667 41.6898C40.3148 41.3378 40.0118 40.9184 39.7614 40.4176L36.1836 42.2064C36.6159 43.0709 37.1662 43.8462 37.8383 44.5182L40.6667 41.6898ZM39.8219 40.5505C39.626 40.0748 39.5245 39.5664 39.5245 39.008H35.5245C35.5245 40.071 35.7217 41.0985 36.1231 42.0735L39.8219 40.5505ZM39.5245 39.008C39.5245 38.4487 39.6262 37.978 39.8048 37.5696L36.1402 35.9664C35.7215 36.9233 35.5245 37.9459 35.5245 39.008H39.5245ZM39.7821 37.6196C40.0356 37.0809 40.3346 36.6584 40.6667 36.3262L37.8383 33.4978C37.1464 34.1896 36.592 35.0044 36.1629 35.9164L39.7821 37.6196ZM40.6091 36.3816C40.9827 36.0367 41.4193 35.7573 41.934 35.5454L40.411 31.8466C39.4751 32.232 38.6317 32.7633 37.8959 33.4424L40.6091 36.3816ZM41.934 35.5454C42.4097 35.3495 42.9181 35.248 43.4765 35.248V31.248C42.4135 31.248 41.386 31.4452 40.411 31.8466L41.934 35.5454ZM43.4765 35.248C44.6458 35.248 45.5125 35.6165 46.2223 36.3262L49.0507 33.4978C47.5418 31.9889 45.6352 31.248 43.4765 31.248V35.248ZM46.2492 36.3526C47.0037 37.0791 47.3645 37.9217 47.3645 39.008H51.3645C51.3645 36.8516 50.5733 34.9635 49.0238 33.4714L46.2492 36.3526Z" fill="#B08C80" fill-opacity="0.7"/>
</svg>
